<svg xmlns="http://www.w3.org/2000/svg" viewBox="0 0 372.29 367.03"><defs><style>.cls-1,.cls-10,.cls-12,.cls-18{fill:#eaeaea;}.cls-13,.cls-15,.cls-16,.cls-2,.cls-4,.cls-5,.cls-6{fill:none;}.cls-13,.cls-15,.cls-17,.cls-18,.cls-2,.cls-4,.cls-5,.cls-6{stroke:#263238;}.cls-15,.cls-16,.cls-18,.cls-2,.cls-4,.cls-5,.cls-6{stroke-linecap:round;stroke-linejoin:round;}.cls-11,.cls-3{fill:#1c1c1c;}.cls-4{stroke-width:1.05px;}.cls-5{stroke-width:1.02px;}.cls-6{stroke-width:0.52px;}.cls-7{fill:#263238;}.cls-10,.cls-8{opacity:0.5;}.cls-17,.cls-9{fill:#fff;}.cls-11{opacity:0.2;}.cls-12{opacity:0.7;}.cls-13,.cls-17{stroke-miterlimit:10;}.cls-14{fill:#c6ff00;}.cls-15{stroke-width:2px;}.cls-16{stroke:#fff;stroke-width:0.5px;}</style></defs><title>illustration 1</title><g id="Background_Simple" data-name="Background Simple"><path class="cls-1" d="M431.53,201c-6.18-37-33.08-55.83-65.62-67.22-22.56-7.9-43.62-16.27-64.32-27.69-22.53-12.43-41.84-29.75-64.76-41.71-19.41-10.14-41.58-17.16-64.45-13.54-18.22,2.89-35.71,12.44-50.58,24.86-34.74,29-55.85,74.8-54.35,117.9,1.56,45,26.07,83.84,57.57,112.17,19.44,17.49,42.15,31.68,67.4,39.94,22.18,7.25,113.16,12.59,162.17-12.68C400.45,309.35,439.76,250.35,431.53,201Z" transform="translate(-60.33 -49.85)"/></g><g id="Table_line" data-name="Table line"><line id="Table_line-2" data-name="Table line" class="cls-2" x1="66.87" y1="351.71" x2="269.44" y2="274.23"/></g><g id="Plant"><path id="Plant-2" data-name="Plant" class="cls-3" d="M139.89,366.58l.09,0-8.6,5V350.13l3.54-2.48L146.18,340c20.46,0,24-18.53,24-18.53-25.16-1.44-25.41,15-25.25,18.05L131.38,349V332.35l.05,0s21.51-6.53-.35-38.8c0,0-23.13,30.5-.66,38.46v34.58l-9.18-7c.16-3.42-.37-20.8-27.73-19.69,0,0,10.54,26.4,27.16,20.46l2.6,2,7,5.3a.48.48,0,0,0,.17.05V379.8l-14.69-.17,6.18,37.21,17.81-.53L145.54,380l-14.16-.17v-7.07l9.89-5.77c16.62,4.33,26.48-12,26.48-12C140.25,350,139.89,366.58,139.89,366.58Z" transform="translate(-60.33 -49.85)"/></g><g id="Window"><g id="Window-2" data-name="Window"><line class="cls-4" x1="250.44" y1="261.01" x2="250.44" y2="78.66"/><line class="cls-4" x1="109.84" y1="241.01" x2="109.84" y2="59.79"/><line class="cls-5" x1="4.38" y1="161.24" x2="315.78" y2="161.24"/><line class="cls-6" x1="147.6" y1="124.23" x2="143.37" y2="127.1"/><line class="cls-4" x1="66.18" y1="178.12" x2="0.52" y2="222.69"/><line class="cls-4" x1="59.08" y1="171.88" x2="43.18" y2="182.66"/></g></g><g id="Character"><g id="Character-2" data-name="Character"><path class="cls-7" d="M190.28,377.69,158.87,254a11.49,11.49,0,0,1,6.33-13.28c27.86-12.73,75-26.38,111.9-25.82a11.51,11.51,0,0,1,11.29,10.6l8.1,102.2a11.52,11.52,0,0,1-7.24,11.62Z" transform="translate(-60.33 -49.85)"/><path class="cls-8" d="M190.28,377.69,158.87,254a11.49,11.49,0,0,1,6.33-13.28c27.86-12.73,75-26.38,111.9-25.82a11.51,11.51,0,0,1,11.29,10.6l8.1,102.2a11.52,11.52,0,0,1-7.24,11.62Z" transform="translate(-60.33 -49.85)"/><path class="cls-7" d="M270,416.64l56.32-23.87a3,3,0,0,0,.59-5.23l-22.18-16a3.07,3.07,0,0,0-2.84-.38l-57.57,21.81a3,3,0,0,0-.78,5.21L267,416.25A3,3,0,0,0,270,416.64Z" transform="translate(-60.33 -49.85)"/><path class="cls-9" d="M295.38,378s18,2.58,20.1,12.41-37.92,10.19-41.43,2.81S289.41,378,295.38,378Z" transform="translate(-60.33 -49.85)"/><path class="cls-9" d="M309.41,387s-2.9-13.79-11.12-16.22-27.35.34-27.35.34l-39.8-23.38-25.56,17.6,11.34,4.6-.09.14s1.86.71,4.87,1.8l6.64,2.7.3-.24c10.37,3.59,25.12,8.28,33.75,9.23,0,0,5.31,5.51,10.75,6.56,0,0,3.48.81,5.45.23a9.58,9.58,0,0,1,7,.11c2.78,1.16,12.15,5.54,14.42,4.33s-1.21-5.14-7.58-8.73c0,0,12.74,3.82,15.41,3.82s3.71-.46,3.59-1Z" transform="translate(-60.33 -49.85)"/><path class="cls-1" d="M223.21,359.16l40.45,20.91c2.6,3,5.87,5.7,9.78,6.51a28.57,28.57,0,0,0,6.34.09,25.4,25.4,0,0,1,18.63,7.81s-1.48.42-4.18-.7-9.71-6-15.64-3.46-16.2-6.79-16.2-6.79-41.66-8.63-55.14-17.62Z" transform="translate(-60.33 -49.85)"/><path class="cls-10" d="M223.21,359.16l40.45,20.91c2.6,3,5.87,5.7,9.78,6.51a28.57,28.57,0,0,0,6.34.09,25.4,25.4,0,0,1,18.63,7.81s-1.48.42-4.18-.7-9.71-6-15.64-3.46-16.2-6.79-16.2-6.79-41.66-8.63-55.14-17.62Z" transform="translate(-60.33 -49.85)"/><path class="cls-2" d="M289.31,384.37s18.87,7,21.33,5.25-7.87-7.5-19.11-11.36" transform="translate(-60.33 -49.85)"/><path class="cls-2" d="M297.05,374.7a23.81,23.81,0,0,1,10.24,6.76" transform="translate(-60.33 -49.85)"/><path class="cls-2" d="M309,386.55s-2.71-11.25-8.68-15.11-29.83-.26-29.83-.26l-43.25-25.92" transform="translate(-60.33 -49.85)"/><path class="cls-2" d="M206.36,366c4.32,1.75,9.8,3.85,16.71,6.31,24.57,8.78,39.32,11.24,39.32,11.24s8.66,9.1,17.21,6.32c5.76-1.88,16.5,6.67,20.36,4.91s-5.78-8.47-17.72-13.74" transform="translate(-60.33 -49.85)"/><path class="cls-3" d="M326.8,324.49l25.57-29.26s-6.89-12.83-15.46-27.13-18.74-29.94-23.07-35.84c-12.06-5.89,5,66.6,5,66.6Z" transform="translate(-60.33 -49.85)"/><path class="cls-3" d="M352.9,296.56C342,272.84,313.84,231.9,313.84,231.9" transform="translate(-60.33 -49.85)"/><path class="cls-3" d="M223.53,315.15l22.13,41.34L316.3,329,319,296.2c4-27.8-5.2-64.37-5.2-64.37l-46-9.89s-66,22.61-67,26.89S223.53,315.15,223.53,315.15Z" transform="translate(-60.33 -49.85)"/><path class="cls-3" d="M223.53,315.15l22.13,41.34L316.3,329,319,296.2c4-27.8-5.2-64.37-5.2-64.37l-46-9.89s-66,22.61-67,26.89S223.53,315.15,223.53,315.15Z" transform="translate(-60.33 -49.85)"/><path class="cls-11" d="M209.73,260.93c1.69,3.6,10,22.29,13,27,4-33.93,2.61-37.66,5.66-39.44l14.2-8.28-7.42-4.53-.34-1.54S205.68,245.22,201,249C201,249,204.46,249.75,209.73,260.93Z" transform="translate(-60.33 -49.85)"/><path class="cls-11" d="M351.29,295.3c3.09-1.8-7.08,1.24-10.26,2.89-2.59,1.34-5.39,3.17-8.19,2.35s-4.27-4.11-5-7c-2.3-9-2.46-18.4-4.44-27.47a126.43,126.43,0,0,0-6.09-18.8s4.47,28,1.58,50L326,322S325.42,310.44,351.29,295.3Z" transform="translate(-60.33 -49.85)"/><path class="cls-3" d="M189.69,347.74a54.91,54.91,0,0,0,41.66-10s-.53-31.85-3.62-39.92c-4-10.37-21.93-50.88-25.78-48.82-2.73,1.45-8.36,45.37-11,74.4C189.88,335.44,189.32,345,189.69,347.74Z" transform="translate(-60.33 -49.85)"/><path class="cls-3" d="M189.69,347.74a54.91,54.91,0,0,0,41.66-10s-.53-31.85-3.62-39.92c-4-10.37-21.93-50.88-25.78-48.82-2.73,1.45-8.36,45.37-11,74.4C189.88,335.44,189.32,345,189.69,347.74Z" transform="translate(-60.33 -49.85)"/><path class="cls-3" d="M231.74,289.59a51,51,0,0,1,1.72,26.62" transform="translate(-60.33 -49.85)"/><path class="cls-3" d="M208.77,323.22A24.83,24.83,0,0,1,227,328.51" transform="translate(-60.33 -49.85)"/><path class="cls-3" d="M216.81,318.39A32.74,32.74,0,0,1,231,331.29" transform="translate(-60.33 -49.85)"/><path class="cls-11" d="M208,255.42c4.88,9.21,2.49,20.7,3.73,31.05.67,5.58,1.39,11.31,4.09,16.24,2,3.58,4.89,6.55,7.21,9.91a34.9,34.9,0,0,1,5.54,13.44c-6.21-6.26-13-12.83-21.66-14.44,4.12,2.1,9.85,6.92,8.38,8.44-2.88,2.72-6.43-3.57-9.4-1.8a6.35,6.35,0,0,0-2.39,3.61,30,30,0,0,0-1.38,12.5l-13.24,6.11s8-84.57,13.08-91.51A16.43,16.43,0,0,1,208,255.42Z" transform="translate(-60.33 -49.85)"/><path class="cls-3" d="M316.46,266a235.25,235.25,0,0,1,4.09,25.47" transform="translate(-60.33 -49.85)"/><path class="cls-9" d="M206.87,366.73s26.22-10.82,29-15-3.63-18.89-6.79-21.35-43.07,5.15-42,13.23,4.1,7.21,2.89,14C189.18,362.06,194.55,372,206.87,366.73Z" transform="translate(-60.33 -49.85)"/><path class="cls-1" d="M223.46,358.65c3.69-2.85-9.18,1.82-13.84,1.55-1.52-.09-3.22-.37-4.13-1.59a3.65,3.65,0,0,1-.25-3.47,7.89,7.89,0,0,1,2.22-2.82,28.65,28.65,0,0,1,8.67-5c1.38-.53,3.65-1,3-2.86-1.32-2-5,0-7.31,1.06s-5.24,1.84-7.25.28c-1.65-1.28-1.94-3.79-1.14-5.72a10.91,10.91,0,0,1,4.16-4.55,4.38,4.38,0,0,0,1.57-1.51,1.36,1.36,0,0,0-.56-1.87s-19,5.19-20.37,10.08,2.27,11.34,2.27,11.34S188.24,361.67,194,366,214.91,365.27,223.46,358.65Z" transform="translate(-60.33 -49.85)"/><path class="cls-12" d="M223.46,358.65c3.69-2.85-9.18,1.82-13.84,1.55-1.52-.09-3.22-.37-4.13-1.59a3.65,3.65,0,0,1-.25-3.47,7.89,7.89,0,0,1,2.22-2.82,28.65,28.65,0,0,1,8.67-5c1.38-.53,3.65-1,3-2.86-1.32-2-5,0-7.31,1.06s-5.24,1.84-7.25.28c-1.65-1.28-1.94-3.79-1.14-5.72a10.91,10.91,0,0,1,4.16-4.55,4.38,4.38,0,0,0,1.57-1.51,1.36,1.36,0,0,0-.56-1.87s-19,5.19-20.37,10.08,2.27,11.34,2.27,11.34-1.92,8.07,3.84,12.43S214.91,365.27,223.46,358.65Z" transform="translate(-60.33 -49.85)"/><path class="cls-13" d="M207.25,366.73s26.23-10.82,29-15-3.62-18.89-6.78-21.35-43.08,5.15-42,13.23,4.1,7.21,2.9,14C189.57,362.06,194.93,372,207.25,366.73Z" transform="translate(-60.33 -49.85)"/><path class="cls-9" d="M331,330.65c-.25-.21-.49-.42-.72-.65-6.66-6.49-2.44-14.68,3-20.36,5-5.24,13.92-13.22,21.44-14.12,3.39-.41,4.9,1.47,6.87,3.85,1.13,1.36,2.53,2.49,3.62,3.89a12.21,12.21,0,0,1-.44,15.19c-3.12,3.45-7.41,4.72-11.53,6.47-5,2.11-9.66,5.6-14.74,7.33A7.85,7.85,0,0,1,331,330.65Z" transform="translate(-60.33 -49.85)"/><path class="cls-14" d="M352.4,324.39c4-3.09,8-6.19,10.72-10.43a10.21,10.21,0,0,0,1.94-5.3c0-1.91-1.16-3.93-3-4.35-1.5-.35-3,.39-4.4,1.11l-4.18,2.18a2.43,2.43,0,0,1-1.63.4c-.8-.2-1.16-1.14-1.21-2-.13-2.29,1.15-4.4,2.39-6.33l2.28-3.58a.89.89,0,0,0-1.1-.09,35.92,35.92,0,0,0-19.78,12.64c-8,10.4-8.67,14-6.07,18.9S335.59,337.46,352.4,324.39Z" transform="translate(-60.33 -49.85)"/><path class="cls-1" d="M352.4,324.39c4-3.07,8-6.19,10.72-10.43a10.21,10.21,0,0,0,1.94-5.3c0-1.91-1.16-3.93-3-4.35-1.5-.35-3,.39-4.4,1.11l-4.18,2.18a2.43,2.43,0,0,1-1.63.4c-.8-.2-1.16-1.14-1.21-2-.13-2.29,1.15-4.4,2.39-6.33l2.28-3.58a.89.89,0,0,0-1.1-.09,35.92,35.92,0,0,0-19.78,12.64c-8,10.4-8.67,14-6.07,18.9S335.79,337.16,352.4,324.39Z" transform="translate(-60.33 -49.85)"/><path class="cls-13" d="M331,330.65c-.25-.21-.49-.42-.72-.65-6.66-6.49-2.44-14.68,3-20.36,5-5.24,13.92-13.22,21.44-14.12,3.39-.41,4.9,1.47,6.87,3.85,1.13,1.36,2.53,2.49,3.62,3.89a12.21,12.21,0,0,1-.44,15.19c-3.12,3.45-7.41,4.72-11.53,6.47-5,2.11-9.66,5.6-14.74,7.33A7.85,7.85,0,0,1,331,330.65Z" transform="translate(-60.33 -49.85)"/><path class="cls-2" d="M231.17,144.19a18.26,18.26,0,0,1,4.16-13.64,27.1,27.1,0,0,1,12-8.12" transform="translate(-60.33 -49.85)"/><path class="cls-9" d="M276.69,210.09c-.63,7.49-.87,25.14-.43,32.65L248,229.56c1-6.79,1.37-19.13-.32-25.78l29,6.31" transform="translate(-60.33 -49.85)"/><path class="cls-13" d="M276.69,210.09c-.63,7.49-.87,25.14-.43,32.65L248,229.56c1-6.79,1.37-19.13-.32-25.78l29,6.31" transform="translate(-60.33 -49.85)"/><path class="cls-7" d="M249,208.09s8.36,15.52,17.14,15.81c8.58.27,10.5-12.51,10.5-12.51s-3.56,6.76-7.43,6.61S249,208.09,249,208.09Z" transform="translate(-60.33 -49.85)"/><path class="cls-9" d="M285.6,144.22s-36.52-7.82-46.85,1.73S231,166.14,231,166.14l.94,3.07a3.44,3.44,0,0,0-.78.08c-2.75.65-5.54,4-4.62,8.79s6.78,15.31,11.1,14.19a5.45,5.45,0,0,0,1.4-.57c1.44,4.33,2.71,7.92,3.4,9.38,2.75,5.8,23.68,17.87,28.59,16.2s17.79-26.68,18.42-32.72S285.6,144.22,285.6,144.22Z" transform="translate(-60.33 -49.85)"/><path class="cls-1" d="M286,149.57c-4.42,4.69-11.73,5.27-18.07,4.11s-12.42-3.73-18.85-4.23a10,10,0,0,0-5.2.67c-2.64,1.28-4,4.39-4,7.33s1,5.76,2,8.52,2,5.59,2,8.52c0,1.36-.28,2.69-.33,4a46.25,46.25,0,0,0,2.88,16.58c4.29,11.95,15.33,16.77,26.4,21,0,0-4,3.31-11.9-.9-2.77-1.47-13.23-8.52-13.23-8.52a16.32,16.32,0,0,1-6.82-9l-2-6.28a4.42,4.42,0,0,1-5.93-1.08c-2.87-3.23-7.17-9.15-6.81-13.81s1.19-6.68,5.55-7a6,6,0,0,1,5.93,3.38l-3.41-20.28s10.23-9.69,17.58-8.25,24,4.12,28.17,3.05a42.85,42.85,0,0,0,5.75-1.8Z" transform="translate(-60.33 -49.85)"/><path class="cls-10" d="M286,149.57c-4.42,4.69-11.73,5.27-18.07,4.11s-12.42-3.73-18.85-4.23a10,10,0,0,0-5.2.67c-2.64,1.28-4,4.39-4,7.33s1,5.76,2,8.52,2,5.59,2,8.52c0,1.36-.28,2.69-.33,4a46.25,46.25,0,0,0,2.88,16.58c4.29,11.95,15.32,16.75,26.38,21,0,0-4.1,3.24-10.36-.25-2.74-1.53-14.75-9.15-14.75-9.15a16.32,16.32,0,0,1-6.82-9l-2-6.28a4.42,4.42,0,0,1-5.93-1.08c-2.87-3.23-7.17-9.15-6.81-13.81s.76-6.18,5.12-6.47a7,7,0,0,1,6.36,2.88l-3.41-20.28s10.23-9.69,17.58-8.25,24,4.12,28.17,3.05a42.85,42.85,0,0,0,5.75-1.8Z" transform="translate(-60.33 -49.85)"/><path class="cls-7" d="M265.69,177c0,1.75-.64,3.18-1.43,3.18s-1.44-1.42-1.44-3.18.64-3.17,1.43-3.18S265.69,175.26,265.69,177Z" transform="translate(-60.33 -49.85)"/><path class="cls-7" d="M281.55,176.19c0,1.75-.64,3.18-1.43,3.18s-1.43-1.43-1.44-3.18.64-3.18,1.44-3.18S281.55,174.43,281.55,176.19Z" transform="translate(-60.33 -49.85)"/><path class="cls-2" d="M269.37,199.05a19.74,19.74,0,0,0,7.38-.48" transform="translate(-60.33 -49.85)"/><path class="cls-15" d="M267.55,166.55a20.35,20.35,0,0,0-9,4.35" transform="translate(-60.33 -49.85)"/><path class="cls-15" d="M283.77,164.75a14.52,14.52,0,0,0-6.1.74" transform="translate(-60.33 -49.85)"/><path class="cls-2" d="M272.8,174.57q.43,3.1.88,6.21a8.61,8.61,0,0,0,.64,2.61,4.5,4.5,0,0,0,3.9,2.49,2.67,2.67,0,0,1,1.41.2,1.36,1.36,0,0,1,.57,1.23,3.43,3.43,0,0,1-1.1,2.1,14.56,14.56,0,0,1-3.49,2.81" transform="translate(-60.33 -49.85)"/><path class="cls-2" d="M231.14,175.59a12.4,12.4,0,0,1,4.32,11.34" transform="translate(-60.33 -49.85)"/><path class="cls-2" d="M230.55,180.82a1.56,1.56,0,0,1,1.14-.89,3.57,3.57,0,0,1,1.49,0,3.24,3.24,0,0,1,1,.33,2,2,0,0,1,.82,1.07" transform="translate(-60.33 -49.85)"/><path class="cls-2" d="M240.48,184.84s2.18,6.24-3.22,7.63c-4.31,1.12-10.17-9.4-11.1-14.19a8,8,0,0,1,1.65-6.93,5.75,5.75,0,0,1,3-1.85c3.19-.76,6.37,3.11,8.38,6.29a28.45,28.45,0,0,0,2,2.92" transform="translate(-60.33 -49.85)"/><path class="cls-13" d="M238.67,191.89c1.44,4.35,2.7,7.93,3.39,9.39,2.75,5.81,23.68,17.87,28.59,16.2s17.79-26.68,18.43-32.72-3.82-40.34-3.82-40.34-36.52-7.82-46.85,1.73-7.79,20.19-7.79,20.19" transform="translate(-60.33 -49.85)"/><path class="cls-2" d="M294.06,127.74s5.64,11.74-1.56,19.73-23.66,1.41-23.66,1.41" transform="translate(-60.33 -49.85)"/><path class="cls-7" d="M287.21,122.39c-2.28.93,1.62,4.93-3.24,6.16s-43.44-16.68-53.15,14.52c0,0-17.29,12.28-3,28.28a5.75,5.75,0,0,1,3-1.85c3.1-.73,6.18,2.89,8.2,6,.9,2.6,2.31,4.93,4.46,4.14,3.92-1.42,2.6-6.33,1-9.92-.51-1.14-1.06-2.14-1.47-2.86-2.46-4.28-6.1-9-4.44-14.19,3.32-6.23,13.41-7.21,23-4.76,15.88,4.05,34.46-1.75,34.17-13.19S289.49,121.46,287.21,122.39Z" transform="translate(-60.33 -49.85)"/><path class="cls-8" d="M294.49,127.53a.6.6,0,0,0-.09-.13c-1.94-4.89-5.53-5.69-7.19-5-2.28.93,1.62,4.93-3.24,6.16s-41.62-15.83-52.4,12.39a18.36,18.36,0,0,1,4.13-10.09,26.57,26.57,0,0,1,11.77-8,.48.48,0,0,0-.32-.9A27.47,27.47,0,0,0,235,130.25a19,19,0,0,0-4.4,12.19,18.37,18.37,0,0,0-14.07,13.92.48.48,0,0,0,.36.57h.1a.48.48,0,0,0,.47-.37,17.46,17.46,0,0,1,12.88-13.1c-2.76,2.22-15.28,13.55-2.49,27.88a5.75,5.75,0,0,1,3-1.85c3.1-.73,6.18,2.89,8.2,6,.9,2.6,2.31,4.93,4.46,4.14,3.92-1.42,2.6-6.33,1-9.92-.51-1.14-1.06-2.14-1.47-2.86-2.46-4.28-6.1-9-4.44-14.19,3.32-6.23,13.41-7.21,23-4.76a41.33,41.33,0,0,0,6.88,1.14.53.53,0,0,0,.26.27,40,40,0,0,0,13.08,2.6c4.08,0,8.26-1,11.11-4.14C300.18,139.66,294.55,127.65,294.49,127.53Zm-2.35,19.62c-5.35,5.94-16.21,3.48-20.89,2,12.21.19,23.47-4.79,24.38-13.12A14.68,14.68,0,0,1,292.14,147.15Z" transform="translate(-60.33 -49.85)"/><path class="cls-16" d="M236.39,149.44c2.55-4.8,8.28-7.16,13.71-7.37s10.75,1.34,16,2.51,10.93,2,16.1.29,9.68-6.49,9.34-11.91" transform="translate(-60.33 -49.85)"/><path class="cls-16" d="M235.35,146c.91-3.58,3.75-6.36,6.8-8.45a35.1,35.1,0,0,1,15.68-5.88" transform="translate(-60.33 -49.85)"/><path class="cls-9" d="M271.49,231l6.19-8.25a1,1,0,0,1,1.57-.12l7.91,7.91a1,1,0,0,1,.17,1.25l-9.5,16.94a1,1,0,0,1-1.91-.24l-4.6-16.59A1.07,1.07,0,0,1,271.49,231Z" transform="translate(-60.33 -49.85)"/><path class="cls-2" d="M271.49,231l6.19-8.25a1,1,0,0,1,1.57-.12l7.91,7.91a1,1,0,0,1,.17,1.25l-9.5,16.94a1,1,0,0,1-1.91-.24l-4.6-16.59A1.07,1.07,0,0,1,271.49,231Z" transform="translate(-60.33 -49.85)"/><path class="cls-9" d="M246.21,221.46l24,9.56a1,1,0,0,1,.6,1.32l-6.16,17.42a1,1,0,0,1-1.48.57l-27-14.65a1,1,0,0,1-.34-1.54L245,221.81A1,1,0,0,1,246.21,221.46Z" transform="translate(-60.33 -49.85)"/><path class="cls-2" d="M246.21,221.46l24,9.56a1,1,0,0,1,.6,1.32l-6.16,17.42a1,1,0,0,1-1.48.57l-27-14.65a1,1,0,0,1-.34-1.54L245,221.81A1,1,0,0,1,246.21,221.46Z" transform="translate(-60.33 -49.85)"/><line class="cls-13" x1="266.47" y1="272.42" x2="259.37" y2="248.81"/><path class="cls-17" d="M341.39,330.37l-49,20.58a3,3,0,0,0-.49,5.24l37.83,25.15,24.61-24.57Z" transform="translate(-60.33 -49.85)"/><path class="cls-7" d="M321,352l-5.89,2.31,3.16,2.23,5.9-2.31Zm0,0-5.89,2.31,3.16,2.23,5.9-2.31Zm0,0-5.89,2.31,3.16,2.23,5.9-2.31Zm4,2.83-5.9,2.3,3.43,2.42,5.91-2.31Zm0,0-5.9,2.3,3.43,2.42,5.91-2.31Zm0,0-5.9,2.3,3.43,2.42,5.91-2.31Zm0,0-5.9,2.3,3.43,2.42,5.91-2.31Zm0,0-5.9,2.3,3.43,2.42,5.91-2.31Zm0,0-5.9,2.3,3.43,2.42,5.91-2.31Zm0,0-5.9,2.3,3.43,2.42,5.91-2.31ZM311.78,360l3.49,2.39,6.29-2.46-3.43-2.41ZM325,354.86l-5.9,2.3,3.43,2.42,5.91-2.31Zm0,0-5.9,2.3,3.43,2.42,5.91-2.31Zm0,0-5.9,2.3,3.43,2.42,5.91-2.31Zm0,0-5.9,2.3,3.43,2.42,5.91-2.31Zm0,0-5.9,2.3,3.43,2.42,5.91-2.31Zm0,0-5.9,2.3,3.43,2.42,5.91-2.31Zm4.28,3-5.9,2.31,3.93,2.76,5.9-2.31Zm1-.38,3.94,2.77.28-.12,1.1-4.72Zm-.84-.59-1,.38.84.59,1-.38Zm-.12,1-5.9,2.31,3.93,2.76,5.9-2.31Zm0,0-5.9,2.31,3.93,2.76,5.9-2.31Zm0,0-5.9,2.31,3.93,2.76,5.9-2.31Zm5.76-3.18.6.41.17-.7Zm-5.64,2.21-1,.38.84.59,1-.38Zm2.21-4.62L326,354.48l3.43,2.41,5.64-2.21Zm-2.21,4.62-1,.38.84.59,1-.38Zm-.12,1-5.9,2.31,3.93,2.76,5.9-2.31Zm.12-1-1,.38.84.59,1-.38Zm-.12,1-5.9,2.31,3.93,2.76,5.9-2.31Zm0,0-5.9,2.31,3.93,2.76,5.9-2.31Zm1-.38,3.94,2.77-1,.37.85.59-5.91,2.32-.84-.6-1,.38.85.59L321,366.32l3,2.08,6.13-2.4.86.6L324.9,369l4,2.75,2.43,1.66.66-2.87.65-2.77.21-.89.25-1.1.24-1,.8-3.44,0-.16.18-.74.06-.28,1.1-4.72Zm-1,.38-5.9,2.31,3.93,2.76,5.9-2.31Zm.12-1-1,.38.84.59,1-.38Zm-.12,1-5.9,2.31,3.93,2.76,5.9-2.31Zm.12-1-1,.38.84.59,1-.38Zm-.12,1-5.9,2.31,3.93,2.76,5.9-2.31Zm.12-1-1,.38.84.59,1-.38Zm-.12,1-5.9,2.31,3.93,2.76,5.9-2.31Zm.12-1-1,.38.84.59,1-.38Zm3.17-5,3.27,2.3.92-3.94Zm-5-2.45-5.65,2.21-.84-.6,5.64-2.2.85.59,1-.38-.85-.59,6-2.33-3-2.13-5.95,2.35-1,.37L318.12,349l-1,.38-5.88,2.32-1,.38-6.48,2.55,3,2.05,6.43-2.52.85.6-6.42,2.51,3.22,2.2,6.37-2.48.84.59,1-.38-.84-.59,5.9-2.31.84.6,1-.38-.85-.6,5.64-2.21Zm-12.5,4.89-.86-.59,5.91-2.31.84.59Zm19.55-8.57-1,.38.85.59,1-.38Zm.84.59,1.88,1.32.51-2.25Zm-3.87-2.72,3,2.13,3.47-1.36.86-3.67Zm-2.22,13.25-1,.38.84.59,1-.38Zm1.36-5.22-3.16-2.22-5.65,2.21-1,.37,3.17,2.23.84.6,1-.38-.85-.6Zm.85.6L326,354.48l3.43,2.41,5.64-2.21Zm5.54-3.69-2.61-1.84-6,2.33,3.16,2.23-.95.37.84.6,1-.37-.84-.6,5.27-2.06Zm-7.75,8.31,5.64-2.21-3.43-2.41L326,354.48Zm1.36-5.22-3.16-2.22-5.65,2.21-1,.37,3.17,2.23.84.6,1-.38-.85-.6Zm-1.48,6.19-5.9,2.31,3.93,2.76,5.9-2.31Zm0,0-5.9,2.31,3.93,2.76,5.9-2.31Zm-4.28-3-5.9,2.3,3.43,2.42,5.91-2.31Zm-2.57,5.68L316.13,363l4,2.73,6.2-2.42Zm.1-1-1,.37.86.59.95-.37Zm6.75-1.72-5.9,2.31,3.93,2.76,5.9-2.31Zm1-.38,3.94,2.77.28-.12,1.1-4.72Zm-.84-.59-1,.38.84.59,1-.38ZM321,352l-5.89,2.31,3.16,2.23,5.9-2.31Zm0,0-5.89,2.31,3.16,2.23,5.9-2.31Zm0,0-5.89,2.31,3.16,2.23,5.9-2.31Z" transform="translate(-60.33 -49.85)"/><path class="cls-18" d="M329.77,381.34l13.47-58.88a7.13,7.13,0,0,1,4.16-5L419.76,287a1.94,1.94,0,0,1,2.61,2.34L405,347.94Z" transform="translate(-60.33 -49.85)"/><path class="cls-7" d="M384.12,327.08c2.07,1.19,2.51,4.3,1,6.94s-4.44,3.81-6.51,2.62-2.51-4.3-1-6.94S382.05,325.88,384.12,327.08Z" transform="translate(-60.33 -49.85)"/></g></g></svg>